<?xml version="1.0" encoding="UTF-8"?>
<!DOCTYPE svg PUBLIC "-//W3C//DTD SVG 1.0//EN" "http://www.w3.org/TR/2001/REC-SVG-20010904/DTD/svg10.dtd">
<!-- Creator: CorelDRAW X6 -->
<svg xmlns="http://www.w3.org/2000/svg" xml:space="preserve" width="16px" height="16px" version="1.0" style="shape-rendering:geometricPrecision; text-rendering:geometricPrecision; image-rendering:optimizeQuality; fill-rule:evenodd; clip-rule:evenodd"
viewBox="0 0 3547 3547"
 xmlns:xlink="http://www.w3.org/1999/xlink"
 enable-background="new 0 0 841.89 595.28">
 <defs>
  <style type="text/css">
   <![CDATA[
    .fil0 {fill:#FEFEFE}
   ]]>
  </style>
 </defs>
 <g id="Layer_x0020_1">
  <metadata id="CorelCorpID_0Corel-Layer"/>
  <g id="_602325760">
   <path class="fil0" d="M1773 0c-979,0 -1773,794 -1773,1774 0,979 794,1773 1773,1773 979,0 1773,-794 1773,-1773 0,-980 -794,-1774 -1773,-1774zm0 3199c-786,0 -1425,-639 -1425,-1425 0,-786 639,-1425 1425,-1425 786,0 1425,639 1425,1425 0,786 -639,1425 -1425,1425zm-82 -1916l-441 0 -68 -194 -425 0 506 1370 415 0 504 -1370 -425 0 -67 194zm-166 529c-29,94 -33,117 -52,208 -23,-94 -31,-125 -58,-210 0,0 -29,-94 -75,-233l258 0c-25,79 -73,235 -73,235zm771 -406l104 558 185 0 106 -566 0 -310 -395 0 0 317 0 0zm0 1053l395 0 0 -394 -395 0 0 394z"/>
  </g>
 </g>
</svg>
